<svg xmlns="http://www.w3.org/2000/svg" data-name="Layer 1" viewBox="0 0 128 160" x="0px" y="0px"><title>95 Miscellaneous 20 solid</title><path d="M64,0a64,64,0,1,0,64,64A64.07,64.07,0,0,0,64,0ZM86.6,106.82a2,2,0,0,1-1.73.06,2,2,0,0,1-1.13-1.32L79.63,90.18A2,2,0,0,1,80.45,88,30,30,0,0,0,91.11,50.9L72.28,79.53a2,2,0,0,1-1.67.9H57.38a2,2,0,0,1-1.68-.91L37,50.67A30,30,0,0,0,49.22,89a2,2,0,0,1,.93,2.23l-4,15.23a2,2,0,0,1-1.08,1.31,2,2,0,0,1-1.7,0A49.35,49.35,0,0,1,39,20.8l.19-.13.67-.39a2,2,0,0,1,2.71.66L64,55.55,86.16,21.31a2,2,0,0,1,2.7-.63,49.17,49.17,0,0,1,12.85,11,1.79,1.79,0,0,1,.39.48,49.36,49.36,0,0,1-15.5,74.63Z"/><text x="0" y="143" fill="#000000" font-size="5px" font-weight="bold" font-family="'Helvetica Neue', Helvetica, Arial-Unicode, Arial, Sans-serif">Created by WEBTECHOPS LLP</text><text x="0" y="148" fill="#000000" font-size="5px" font-weight="bold" font-family="'Helvetica Neue', Helvetica, Arial-Unicode, Arial, Sans-serif">from the Noun Project</text></svg>